<svg xmlns="http://www.w3.org/2000/svg" viewBox="0 0 442.681 68.001"><defs><style>.a{fill:#fff;}</style></defs><title>nodesource_identity(RGB)_horizontal_inverty</title><path class="a" d="M1748.918,640.6a2.249,2.249,0,0,1-1.766-.855L1728.5,616.129v22.22a2.25,2.25,0,0,1-4.5,0v-28.7a2.25,2.25,0,0,1,4.016-1.395l18.652,23.615v-22.22a2.25,2.25,0,0,1,4.5,0v28.7A2.25,2.25,0,0,1,1748.918,640.6ZM1790.64,624c0-9.5-7.333-17.224-16.347-17.224S1757.946,614.5,1757.946,624s7.333,17.223,16.347,17.223S1790.64,633.5,1790.64,624Zm-4.5,0c0,7.016-5.314,12.723-11.847,12.723s-11.847-5.708-11.847-12.723,5.314-12.724,11.847-12.724S1786.14,616.985,1786.14,624Zm136.826,0c0-9.5-7.333-17.224-16.347-17.224S1890.272,614.5,1890.272,624s7.333,17.223,16.347,17.223S1922.966,633.5,1922.966,624Zm-4.5,0c0,7.016-5.314,12.723-11.847,12.723s-11.847-5.708-11.847-12.723,5.314-12.724,11.847-12.724S1918.466,616.985,1918.466,624Zm38.073,3.188V609.651a2.25,2.25,0,0,0-4.5,0v17.538a9.195,9.195,0,1,1-18.377,0V609.651a2.25,2.25,0,0,0-4.5,0v17.538A13.693,13.693,0,1,0,1956.539,627.189ZM1880.9,614.014a2.047,2.047,0,0,0,3.081-.945c0.862-2.335-3.1-4.091-4.687-4.819a16.126,16.126,0,0,0-9.218-1.269c-5.022.789-9.419,4.528-8.937,9.948a8.723,8.723,0,0,0,5.1,6.971c2.923,1.481,6.164,1.727,9.23,2.75,2.419,0.807,5.643,2.366,5.371,5.39-0.284,3.161-3.808,4.377-6.519,4.621a13.975,13.975,0,0,1-8.107-1.958c-1.011-.563-1.9-1.388-2.913-1.916a2.037,2.037,0,0,0-2.944,1.431,2.515,2.515,0,0,0,1.236,2.382,21.705,21.705,0,0,0,3.4,2.339,16.8,16.8,0,0,0,8.346,2.278c5.16-.073,10.989-2.527,11.914-8.173,0.861-5.258-3.325-8.848-7.851-10.487-3.558-1.288-13.117-1.6-11.685-7.481,0.751-3.084,4.59-3.829,7.281-3.794a12.806,12.806,0,0,1,4.534.933,10.23,10.23,0,0,1,3.369,1.8C1881.809,614.666,1880.912,614.026,1880.9,614.014ZM1824.822,624c0-8.263-5.765-16.6-18.645-16.6h-6.654a2.25,2.25,0,0,0-2.25,2.25v28.7a2.25,2.25,0,0,0,2.25,2.25h6.654C1817.853,640.6,1824.822,634.395,1824.822,624Zm-23.049-12.1h4.4c8.593,0,14.145,4.75,14.145,12.1,0,7.916-4.891,12.1-14.145,12.1h-4.4V611.9Zm51.139,24.2H1836v-9.917h11.775a2.25,2.25,0,0,0,0-4.5H1836V611.9h16.917a2.25,2.25,0,0,0,0-4.5h-19.167a2.25,2.25,0,0,0-2.25,2.25v28.7a2.25,2.25,0,0,0,2.25,2.25h19.167A2.25,2.25,0,0,0,1852.912,636.1Zm201.051,0h-16.917v-9.917h11.774a2.25,2.25,0,0,0,0-4.5h-11.774V611.9h16.917a2.25,2.25,0,0,0,0-4.5H2034.8a2.25,2.25,0,0,0-2.25,2.25v28.7a2.25,2.25,0,0,0,2.25,2.25h19.167A2.25,2.25,0,0,0,2053.963,636.1Zm-64.125,4.088a2.25,2.25,0,0,1-3.136-.541l-9.515-13.48h-7.755V638.35a2.25,2.25,0,0,1-4.5,0v-28.7a2.25,2.25,0,0,1,2.25-2.25h13.31c5.883,0,10.152,3.946,10.152,9.383a9.219,9.219,0,0,1-8.072,9.208l7.807,11.06A2.25,2.25,0,0,1,1989.838,640.188Zm-20.406-18.521h11.06c3.381,0,5.652-1.962,5.652-4.883s-2.271-4.883-5.652-4.883h-11.06v9.766Zm54.257,11.23c-1.254-.274-2.047.756-2.968,1.392a13.726,13.726,0,0,1-7.747,2.435l0.113,0a12.738,12.738,0,1,1,4.387-24.687,17.932,17.932,0,0,1,4.537,2.681,2.031,2.031,0,0,0,2.872-2.818c-2.29-2.971-6.689-4.671-10.284-5.035a17.214,17.214,0,0,0-13.636,29.5,17.045,17.045,0,0,0,23.7-.036A2.046,2.046,0,0,0,2023.689,632.9Z" transform="translate(-1639 -590)"/><path class="a" d="M2074.42,616.366a2.387,2.387,0,0,0,2.09-2.385,2.452,2.452,0,0,0-2.629-2.43h-3.447a0.583,0.583,0,0,0-.583.583v7.432a0.583,0.583,0,0,0,1.165,0v-3.155h2.008l2.464,3.491a0.583,0.583,0,1,0,.952-0.672Zm-3.4-1.12v-2.529h2.864a1.278,1.278,0,1,1,0,2.529h-2.864Zm2.164-7.9a8.5,8.5,0,1,0,8.5,8.5A8.51,8.51,0,0,0,2073.181,607.35Zm0,15.945a7.445,7.445,0,1,1,7.445-7.445A7.453,7.453,0,0,1,2073.181,623.3Z" transform="translate(-1639 -590)"/><path class="a" d="M1673,658a34,34,0,1,1,34-34A34.039,34.039,0,0,1,1673,658Zm0-65.276A31.276,31.276,0,1,0,1704.275,624,31.311,31.311,0,0,0,1673,592.725Z" transform="translate(-1639 -590)"/><path class="a" d="M1663.995,630.224a1.418,1.418,0,0,1-2.573.822l-7.193-10.1v9.278a1.418,1.418,0,1,1-2.836,0V616.512a1.418,1.418,0,0,1,2.573-.822l7.193,10.1v-9.278a1.418,1.418,0,1,1,2.836,0v13.713Z" transform="translate(-1639 -590)"/><path class="a" d="M1673.734,639.6a0.8,0.8,0,1,1-1.6,0V608.4a0.8,0.8,0,1,1,1.6,0V639.6Z" transform="translate(-1639 -590)"/><path class="a" d="M1694.88,627.562c-0.362,2.877-3.345,4.146-5.918,4.284A9.807,9.807,0,0,1,1682,629.38a1.253,1.253,0,0,1,.675-2.208,2.031,2.031,0,0,1,1.281.556,9.642,9.642,0,0,0,1.847.952,6.733,6.733,0,0,0,4.264.26c0.988-.273,2.453-1.127,1.913-2.383-0.5-1.151-2.347-1.575-3.427-1.81a15.221,15.221,0,0,1-4.25-1.293,4.342,4.342,0,0,1-2.026-5.641c1.27-2.716,4.852-3.293,7.517-2.765a9.127,9.127,0,0,1,3.852,1.729,1.242,1.242,0,0,1-1.373,2.067,7.618,7.618,0,0,0-4.614-1.27c-1.2.092-2.974,0.772-2.945,1.934,0.027,1.074.979,1.517,1.891,1.822,1.387,0.464,2.857.583,4.239,1.076C1693.087,623.205,1695.209,624.947,1694.88,627.562Z" transform="translate(-1639 -590)"/></svg>